<svg width="195" height="150" viewBox="0 0 195 150" fill="none" xmlns="http://www.w3.org/2000/svg">
<path fill-rule="evenodd" clip-rule="evenodd" d="M154.444 91.3172L135.945 108.818C135.688 109.058 135.386 109.244 135.056 109.366C130.207 111.112 125.312 112.757 120.485 114.564C113.828 116.962 107.733 120.697 102.574 125.54C102.075 126.033 102.221 127.184 102.045 128.016C102.747 127.956 103.437 127.792 104.091 127.529C108.331 124.896 113.164 124.41 117.879 123.495C117.563 123.978 117.175 124.409 116.729 124.776C110.732 130.156 104.838 135.532 98.9023 140.91C98.2048 141.487 97.6457 142.213 97.2663 143.034C97.155 143.371 97.1134 143.728 97.1441 144.082C97.1748 144.435 97.277 144.779 97.4446 145.092C97.6857 145.476 98.702 145.604 99.2541 145.46C101.076 144.971 102.861 144.354 104.596 143.613C116 138.442 126.181 130.915 134.468 121.527C135.241 120.671 136.243 120.054 137.355 119.749C143.531 117.979 149.41 115.301 154.799 111.805C162.103 107.161 167.091 100.146 173.258 94.326C173.78 93.7673 174.204 93.1235 174.51 92.4223C176.785 87.9786 179.563 83.811 182.789 80.0016C186.551 75.5909 191.425 72.8323 196.119 69.6263C190.772 78.6987 188.121 88.643 185.472 98.6492C183.515 106.112 181.289 113.563 176.143 119.635C174.773 121.466 173.593 123.432 172.62 125.502C172.331 126.07 172.548 126.909 172.51 127.571C173.279 127.484 174.022 127.239 174.693 126.851C175.644 125.937 176.487 124.916 177.203 123.807C182.043 116.694 187.009 109.638 191.617 102.409C195.548 95.9654 198.474 88.9597 200.294 81.6338C202.027 75.3771 203.301 68.9926 205.41 62.8667C207.671 56.3636 210.642 50.103 213.404 43.7674C214.547 41.1451 215.921 38.6176 217.25 36.0091C217.399 36.1275 217.504 36.165 217.505 36.2062C217.313 37.0001 217.17 37.8051 217.077 38.6167C216.229 51.5919 214.535 64.5774 214.863 77.5098C215.209 93.1109 213.065 108.667 208.514 123.594C206.855 129.043 205.697 134.659 204.353 140.262C204.065 141.428 203.943 142.609 203.738 143.773L204.599 144.154C205.132 143.494 205.604 142.785 206.008 142.039C208.885 135.472 211.722 128.906 214.514 122.26C217.22 116.06 219.6 109.723 221.646 103.275C223.869 94.8322 224.251 86.0103 222.766 77.4072C221.156 66.0906 219.423 54.8198 219.972 43.2593C220.482 32.9183 221.993 22.8504 226.978 13.4815C228.761 9.62142 230.271 5.64102 231.498 1.56963C231.57 1.048 231.551 0.517618 231.44 0.00268838C230.991 0.243941 230.589 0.566595 230.257 0.954252C229.015 2.87514 227.874 4.86007 226.841 6.9008C223.002 14.8447 219.265 22.7642 215.76 30.8197C213.267 36.7985 209.686 42.2631 205.2 46.9365C203.818 48.4104 202.145 49.5823 200.287 50.3785C198.43 51.1746 196.427 51.5778 194.407 51.5626C188.216 51.644 182.036 52.014 175.822 51.4563C162.391 50.2558 148.893 52.859 136.871 58.9681C136.093 59.4462 135.372 60.0129 134.724 60.6567L135.058 61.3258C135.718 61.3017 136.377 61.2776 137.12 61.2505C140.254 61.1362 143.294 60.7362 146.493 60.7021C156.069 60.6003 165.655 60.8078 175.247 60.5817C183.953 60.5432 192.485 58.1411 199.932 53.6318C202.456 52.074 204.697 50.1135 207.128 48.2906C207.133 48.5027 207.099 48.7139 207.027 48.9136C203.09 54.1772 199.596 59.6931 195.379 64.6366C192.129 68.7152 187.966 71.9728 183.226 74.1469C178.486 76.3209 173.301 77.3504 168.089 77.1523C160.667 76.8652 153.287 75.9046 146.039 74.2823C131.87 71.4367 117.174 72.908 103.851 78.5058C100.241 79.5785 97.0531 81.7431 94.7246 84.702C85.6192 82.4124 68.6524 81.9374 63.2284 83.7869C66.0811 83.8893 68.9095 83.8893 71.7247 84.0962C74.54 84.3031 77.3789 84.5918 80.1803 84.985C82.9817 85.3783 85.5837 85.9646 88.2652 86.4654C88.1236 86.6061 87.9552 86.7168 87.7699 86.791C87.5846 86.8652 87.3862 86.9012 87.1867 86.897C76.7475 86.4315 66.2877 86.8133 55.9101 88.0385C52.7853 88.4002 49.6012 88.2687 46.4261 88.3846L46.4051 87.8073C47.1742 87.387 47.9434 86.9667 48.7133 86.567C47.7992 86.4981 46.8824 86.6593 46.0466 87.0359C45.3325 87.4506 44.6588 87.9313 44.0345 88.4719C44.6361 88.9916 45.2969 89.4386 46.0031 89.8039C51.0059 91.6858 56.1819 90.9601 61.3126 90.6903C82.0203 89.5836 102.587 90.2781 122.577 94.9576C122.228 94.9931 121.877 95.0059 121.526 94.9959C112.433 94.7497 103.333 94.4969 94.2261 94.2374C83.0104 93.6833 71.7718 94.677 60.8273 97.1905C58.6979 97.8091 56.6504 98.6809 54.7286 99.7872C54.454 100.014 54.2394 100.304 54.1038 100.633C53.9682 100.962 53.9157 101.32 53.951 101.674C53.9653 102.065 54.9722 102.503 55.5945 102.584C56.4956 102.654 57.4018 102.621 58.2954 102.485C67.2748 101.467 76.3407 101.468 85.3197 102.49C92.8062 103.414 100.372 103.696 107.886 104.227C109.066 104.307 110.257 104.14 112.009 104.076C111.222 104.559 111 104.712 110.758 104.844C110.515 104.977 109.865 105.269 109.416 105.43C94.435 111.261 78.7142 114.975 62.7075 116.466C57.7116 116.78 52.6982 116.266 47.8702 114.943C42.6065 113.668 37.4359 112.036 32.3941 110.058C22.6565 106.284 12.6108 105.949 2.40493 106.879C1.88397 106.982 1.37159 107.125 0.872172 107.306L0.625971 107.914C1.31055 108.548 2.08058 109.082 2.9136 109.503C9.64495 111.796 16.3594 114.194 23.2025 116.153C27.7805 117.522 32.4637 118.511 37.2044 119.11C50.8871 120.676 64.5515 119.475 78.2174 118.316C81.7782 118.02 85.2957 117.108 89.1927 116.408C88.5481 116.934 87.877 117.427 87.1822 117.885C73.5781 125.263 59.9689 132.69 46.3546 140.164C44.0086 141.428 41.7758 142.891 39.6807 144.537C39.2549 144.95 38.9233 145.45 38.7083 146.003C38.4933 146.556 38.4002 147.149 38.4351 147.741C38.4945 149.37 40.2784 149.036 41.4581 149.117C41.8081 149.167 42.1642 149.154 42.5096 149.079C47.6983 147.568 53.0662 146.443 58.0696 144.382C69.4236 139.839 78.8535 132.351 87.9766 124.38C93.9805 119.185 99.302 113.396 107.015 110.349C118.555 105.798 129.752 100.352 141.155 95.4563C145.506 93.6047 150.038 92.2212 154.786 90.5202C154.696 90.7956 154.582 91.0623 154.444 91.3172ZM160.154 85.9889C155.325 87.7342 150.522 89.6436 145.578 91.0627C142.5 91.8771 139.332 92.3048 136.148 92.3359C131.784 92.5182 127.411 92.3255 123.08 91.7599C117.328 90.855 111.698 89.3263 106.014 88.006C104.131 87.5694 102.296 86.9447 100.537 86.1414C101.42 86.006 102.302 85.85 103.184 85.6939C119.841 83.1906 136.682 82.1132 153.522 82.4736C160.027 82.5252 166.518 81.607 173.271 81.1128C168.892 82.7384 164.535 84.4046 160.154 85.9889ZM149.395 101.184C151.92 97.9537 154.592 94.8008 157.097 91.6126C158.785 89.5871 161.038 88.1105 163.569 87.3713C168.481 85.623 173.256 83.5289 178.179 81.5324C176.101 84.5605 173.879 87.5938 171.888 90.7425C169.507 94.3787 166.118 97.2426 162.135 98.9848C157.407 101.222 152.565 103.195 147.769 105.269C147.463 105.383 147.135 105.437 146.439 105.607C147.554 103.914 148.389 102.48 149.395 101.184ZM69.1036 97.6936C81.4206 95.7783 93.8362 96.5639 106.405 97.0136C113.268 97.2792 120.153 96.9867 127.047 96.9415C127.851 96.9122 128.676 96.8821 129.48 96.8527L129.65 97.5691C125.129 98.7044 120.638 100.086 116.064 100.893C107.49 102.424 98.848 101.522 90.2879 100.595C80.2864 99.2593 70.1547 99.2128 60.1413 100.457C59.8263 100.489 59.5095 100.5 59.1929 100.491L59.1711 99.8935C62.5077 99.111 65.8191 98.2057 69.1036 97.6936ZM141.733 107.884C131.114 122.971 119.053 136.417 100.977 142.878C113.64 130.091 127.984 119.224 141.856 107.88L141.733 107.884ZM220.667 93.4216C219.458 104.986 214.868 115.538 210.444 126.125C211.946 120.331 213.593 114.552 214.928 108.702C217.022 99.2597 217.822 89.5765 217.304 79.9188C217.103 74.3933 217.313 68.8528 217.338 63.2984C217.565 63.2901 217.791 63.2818 218.018 63.2736C219.579 73.2294 221.842 83.2008 220.79 93.4171L220.667 93.4216ZM41.6628 146.24L85.0908 123.37C78.3553 132.844 52.3146 146.78 41.7865 146.236L41.6628 146.24ZM184.442 57.4177C176.593 58.9842 168.666 58.4477 160.732 58.283C156.024 58.2484 151.298 58.297 146.591 58.3037C146.2 58.318 145.808 58.3323 145.437 58.3458L145.415 57.7479C148.686 56.6429 152.048 55.8293 155.463 55.3167C163.001 54.8351 170.56 54.9102 178.153 54.7983C182.586 54.6365 187.026 54.6809 191.484 54.6421C191.793 54.6308 192.106 54.7226 192.438 54.7518L192.458 55.3084C189.864 56.0638 187.354 56.8779 184.566 57.4132L184.442 57.4177ZM103.253 82.4914C120.06 74.6317 137.411 74.3288 155.129 78.9673C137.802 78.3127 120.455 79.4924 103.377 82.4869L103.253 82.4914ZM18.4077 108.091C27.6053 110.645 36.6009 113.889 45.576 117.133C31.5074 117.44 18.5739 112.647 5.80621 107.869L5.77611 107.045C10.2048 107.337 14.5689 106.992 18.5314 108.086L18.4077 108.091ZM201.688 66.6566C198.674 79.6697 195.668 92.352 187.912 103.267C191.152 90.7827 194.319 78.0118 201.688 66.6566ZM142.772 110.902C143.143 110.493 143.616 110.19 144.144 110.026C149.768 108.024 155.415 106.043 160.919 104.128C154.767 110.193 147.191 114.615 138.886 116.989L138.58 116.546C139.915 114.66 141.332 112.75 142.772 110.902ZM127.109 115.602C123.757 121.051 118.396 120.669 113.667 121.77L113.42 121.222C117.851 119.326 122.285 117.512 127.106 115.54L127.109 115.602Z" fill="white"/>
</svg>
