<svg width="282" height="207" viewBox="0 0 282 207" fill="none" xmlns="http://www.w3.org/2000/svg">
<path fill-rule="evenodd" clip-rule="evenodd" d="M68.0288 126.546L93.6649 150.799C94.0211 151.131 94.4394 151.39 94.896 151.559C101.617 153.979 108.4 156.258 115.089 158.762C124.314 162.085 132.761 167.262 139.911 173.973C140.601 174.656 140.4 176.251 140.644 177.404C139.67 177.321 138.714 177.094 137.807 176.728C131.933 173.081 125.234 172.407 118.7 171.139C119.139 171.807 119.676 172.406 120.295 172.913C128.605 180.369 136.773 187.82 144.998 195.272C145.965 196.071 146.74 197.077 147.266 198.216C147.42 198.683 147.477 199.177 147.435 199.667C147.392 200.158 147.251 200.634 147.018 201.068C146.684 201.599 145.276 201.777 144.511 201.577C141.986 200.9 139.512 200.045 137.108 199.018C121.304 191.852 107.196 181.421 95.7114 168.411C94.64 167.225 93.2516 166.371 91.7102 165.948C83.1518 163.494 75.0051 159.784 67.5362 154.938C57.4144 148.503 50.5023 138.781 41.9562 130.716C41.2322 129.942 40.6455 129.05 40.2215 128.078C37.069 121.92 33.2191 116.144 28.7477 110.865C23.535 104.753 16.7796 100.93 10.2757 96.4871C17.6845 109.06 21.3585 122.841 25.0295 136.707C27.742 147.048 30.8269 157.375 37.9583 165.789C39.8563 168.327 41.4919 171.052 42.8399 173.92C43.2404 174.707 42.9405 175.87 42.9928 176.787C41.9267 176.666 40.8969 176.326 39.9679 175.79C38.6491 174.523 37.4815 173.107 36.4885 171.571C29.7816 161.714 22.9002 151.936 16.514 141.918C11.0662 132.988 7.01165 123.279 4.49 113.127C2.08853 104.457 0.322908 95.6089 -2.60017 87.1196C-5.73305 78.1077 -9.85092 69.4317 -13.6789 60.6518C-15.2629 57.0178 -17.1664 53.5152 -19.0085 49.9003C-19.2147 50.0645 -19.3597 50.1164 -19.3618 50.1736C-19.0954 51.2737 -18.8972 52.3893 -18.7684 53.5139C-17.5936 71.4951 -15.2464 89.4904 -15.7002 107.412C-16.1791 129.032 -13.209 150.59 -6.90165 171.275C-4.60237 178.826 -2.99813 186.61 -1.13576 194.374C-0.737003 195.99 -0.567861 197.627 -0.283403 199.24L-1.47569 199.768C-2.21485 198.853 -2.86854 197.871 -3.42858 196.836C-7.41654 187.736 -11.3473 178.638 -15.2168 169.427C-18.9659 160.835 -22.2647 152.053 -25.0997 143.117C-28.1806 131.418 -28.7102 119.192 -26.6524 107.27C-24.4207 91.5874 -22.0197 75.9683 -22.7797 59.9477C-23.4869 45.6171 -25.5812 31.665 -32.4887 18.6816C-34.9599 13.3322 -37.053 7.8162 -38.7526 2.17405C-38.8535 1.45118 -38.8267 0.716172 -38.6733 0.00258043C-38.0498 0.336909 -37.4938 0.784043 -37.0335 1.32126C-35.3119 3.98323 -33.7315 6.73396 -32.2989 9.56201C-26.9787 20.5706 -21.8004 31.5455 -16.9436 42.7089C-13.488 50.9943 -8.5261 58.5672 -2.30949 65.0435C-0.393395 67.0862 1.92465 68.7101 4.49886 69.8134C7.07306 70.9167 9.84775 71.4754 12.6483 71.4544C21.2271 71.5672 29.7913 72.08 38.4024 71.3071C57.0156 69.6435 75.7213 73.251 92.381 81.7169C93.4599 82.3796 94.4584 83.1649 95.3568 84.0571L94.8938 84.9843C93.9795 84.9509 93.0652 84.9175 92.0366 84.88C87.6938 84.7215 83.4797 84.1673 79.047 84.1199C65.7772 83.979 52.4918 84.2665 39.1997 83.9531C27.1349 83.8997 15.3112 80.5709 4.99073 74.322C1.49329 72.1631 -1.61184 69.4463 -4.98142 66.9201C-4.98797 67.2141 -4.94047 67.5067 -4.84128 67.7835C0.61446 75.0778 5.45661 82.7216 11.3005 89.5724C15.8043 95.2245 21.5734 99.739 28.1426 102.752C34.7117 105.765 41.8971 107.191 49.1189 106.917C59.4041 106.519 69.6319 105.188 79.6762 102.939C99.3111 98.996 119.678 101.035 138.141 108.792C143.143 110.279 147.561 113.279 150.788 117.379C163.406 114.206 186.919 113.548 194.435 116.111C190.482 116.253 186.563 116.253 182.661 116.54C178.76 116.826 174.826 117.226 170.943 117.771C167.061 118.316 163.455 119.129 159.739 119.823C159.936 120.018 160.169 120.171 160.426 120.274C160.682 120.377 160.957 120.427 161.234 120.421C175.701 119.776 190.196 120.305 204.577 122.003C208.907 122.504 213.32 122.322 217.72 122.482L217.749 121.682C216.683 121.1 215.617 120.517 214.55 119.964C215.817 119.868 217.088 120.092 218.246 120.613C219.236 121.188 220.169 121.854 221.034 122.603C220.201 123.324 219.285 123.943 218.306 124.449C211.373 127.057 204.2 126.052 197.09 125.678C168.393 124.144 139.892 125.107 112.19 131.591C112.674 131.64 113.16 131.658 113.647 131.644C126.248 131.303 138.858 130.953 151.479 130.593C167.021 129.825 182.596 131.202 197.763 134.686C200.714 135.543 203.551 136.751 206.214 138.284C206.595 138.598 206.892 139.001 207.08 139.456C207.268 139.912 207.341 140.408 207.292 140.898C207.272 141.441 205.877 142.048 205.014 142.16C203.766 142.257 202.51 142.212 201.272 142.023C188.828 140.611 176.264 140.614 163.821 142.03C153.446 143.311 142.961 143.7 132.549 144.436C130.914 144.548 129.263 144.316 126.834 144.228C127.926 144.897 128.233 145.108 128.569 145.292C128.906 145.476 129.807 145.881 130.428 146.104C151.189 154.184 172.975 159.332 195.157 161.398C202.081 161.833 209.028 161.12 215.719 159.287C223.013 157.52 230.179 155.258 237.166 152.517C250.66 147.288 264.581 146.823 278.725 148.112C279.447 148.255 280.157 148.453 280.849 148.704L281.19 149.546C280.241 150.425 279.174 151.166 278.02 151.748C268.691 154.926 259.386 158.249 249.903 160.964C243.559 162.861 237.069 164.232 230.5 165.062C211.538 167.231 192.602 165.567 173.664 163.961C168.729 163.552 163.854 162.287 158.454 161.317C159.347 162.047 160.277 162.73 161.24 163.364C180.093 173.589 198.952 183.881 217.819 194.239C221.07 195.99 224.164 198.017 227.068 200.299C227.658 200.871 228.117 201.564 228.415 202.33C228.713 203.097 228.842 203.918 228.794 204.739C228.712 206.996 226.239 206.534 224.605 206.646C224.12 206.714 223.626 206.696 223.147 206.593C215.957 204.499 208.518 202.94 201.584 200.084C185.85 193.788 172.782 183.412 160.139 172.365C151.819 165.166 144.444 157.144 133.756 152.92C117.764 146.615 102.247 139.068 86.4444 132.283C80.4155 129.716 74.1341 127.799 67.5541 125.442C67.679 125.824 67.8379 126.193 68.0288 126.546ZM60.1159 119.163C66.8081 121.581 73.4634 124.227 80.3152 126.194C84.5809 127.322 88.9705 127.915 93.3827 127.958C99.4312 128.211 105.49 127.944 111.493 127.16C119.464 125.906 127.266 123.787 135.143 121.958C137.753 121.353 140.296 120.487 142.733 119.374C141.51 119.186 140.287 118.97 139.065 118.754C115.981 115.285 92.6434 113.792 69.3057 114.291C60.2911 114.362 51.2968 113.09 41.9378 112.405C48.0067 114.658 54.0449 116.967 60.1159 119.163ZM75.0255 140.22C71.5268 135.743 67.824 131.374 64.3518 126.956C62.0126 124.149 58.89 122.103 55.3826 121.078C48.5761 118.655 41.9587 115.753 35.1361 112.987C38.0156 117.183 41.0951 121.387 43.854 125.75C47.1548 130.789 51.8513 134.758 57.3701 137.172C63.9231 140.272 70.6324 143.006 77.2794 145.881C77.7027 146.039 78.1578 146.113 79.1219 146.349C77.5767 144.004 76.4191 142.016 75.0255 140.22ZM186.294 135.383C169.225 132.729 152.019 133.817 134.602 134.44C125.09 134.809 115.549 134.403 105.995 134.341C104.881 134.3 103.738 134.258 102.624 134.218L102.388 135.21C108.653 136.784 114.877 138.699 121.216 139.817C133.098 141.939 145.074 140.688 156.936 139.404C170.796 137.553 184.837 137.488 198.713 139.212C199.15 139.257 199.589 139.273 200.028 139.26L200.058 138.431C195.434 137.347 190.845 136.093 186.294 135.383ZM85.6442 149.505C100.359 170.412 117.074 189.046 142.124 198C124.575 180.279 104.697 165.22 85.4727 149.499L85.6442 149.505ZM-23.7431 129.463C-22.0678 145.488 -15.7065 160.111 -9.57593 174.783C-11.6575 166.753 -13.9401 158.745 -15.79 150.638C-18.6922 137.553 -19.8002 124.134 -19.0835 110.75C-18.804 103.093 -19.096 95.4152 -19.1298 87.7179C-19.4441 87.7065 -19.7584 87.695 -20.0727 87.6835C-22.2355 101.48 -25.3719 115.299 -23.9146 129.457L-23.7431 129.463ZM224.321 202.659L164.138 170.966C173.472 184.095 209.56 203.408 224.15 202.653L224.321 202.659ZM26.4568 79.5685C37.3351 81.7393 48.3197 80.9958 59.3142 80.7676C65.8389 80.7197 72.3881 80.787 78.9108 80.7962C79.4536 80.816 79.9965 80.8358 80.5108 80.8546L80.541 80.026C76.0079 78.4947 71.3483 77.3673 66.6166 76.6569C56.1698 75.9895 45.6949 76.0936 35.1722 75.9384C29.0292 75.7142 22.8759 75.7758 16.6982 75.722C16.2696 75.7063 15.8358 75.8336 15.3766 75.874L15.3485 76.6454C18.9437 77.6922 22.4215 78.8204 26.2853 79.5623L26.4568 79.5685ZM138.969 114.316C115.678 103.424 91.6327 103.004 67.0798 109.432C91.091 108.525 115.131 110.16 138.798 114.309L138.969 114.316ZM256.548 149.791C243.802 153.331 231.336 157.826 218.898 162.322C238.394 162.747 256.318 156.106 274.011 149.484L274.053 148.342C267.916 148.747 261.868 148.269 256.377 149.785L256.548 149.791ZM2.55815 92.3718C6.73508 110.405 10.9001 127.981 21.6489 143.107C17.1592 125.806 12.7697 108.108 2.55815 92.3718ZM84.2041 153.687C83.6901 153.12 83.0336 152.701 82.303 152.473C74.5079 149.699 66.6832 146.953 59.0554 144.3C67.5804 152.704 78.0797 158.833 89.5896 162.123L90.0125 161.509C88.1624 158.895 86.1992 156.249 84.2041 153.687ZM105.91 160.201C110.555 167.752 117.985 167.222 124.538 168.748L124.88 167.988C118.739 165.361 112.594 162.848 105.913 160.115L105.91 160.201Z" fill="white"/>
</svg>
