<svg width="98" height="98" viewBox="0 0 98 98" fill="none" xmlns="http://www.w3.org/2000/svg">
<g clip-path="url(#clip0_88_88)">
<path d="M48.665 32.4453C45.4567 32.4453 42.3204 33.3967 39.6528 35.1792C36.9851 36.9616 34.9059 39.4951 33.6782 42.4592C32.4504 45.4233 32.1291 48.685 32.7551 51.8317C33.381 54.9784 34.9259 57.8688 37.1946 60.1374C39.4632 62.4061 42.3537 63.951 45.5003 64.577C48.647 65.2029 51.9087 64.8816 54.8728 63.6538C57.8369 62.4261 60.3704 60.3469 62.1529 57.6793C63.9353 55.0116 64.8867 51.8753 64.8867 48.667C64.8867 44.3647 63.1776 40.2387 60.1355 37.1965C57.0933 34.1544 52.9673 32.4453 48.665 32.4453ZM48.665 56.7778C47.0609 56.7778 45.4927 56.3021 44.1589 55.4109C42.8251 54.5197 41.7855 53.2529 41.1716 51.7709C40.5577 50.2888 40.3971 48.658 40.71 47.0846C41.023 45.5113 41.7955 44.0661 42.9298 42.9318C44.0641 41.7974 45.5093 41.025 47.0827 40.712C48.656 40.399 50.2869 40.5597 51.7689 41.1735C53.251 41.7874 54.5177 42.827 55.4089 44.1608C56.3002 45.4947 56.7759 47.0628 56.7759 48.667C56.7759 50.8181 55.9213 52.8811 54.4003 54.4022C52.8792 55.9233 50.8162 56.7778 48.665 56.7778Z" fill="white"/>
<path d="M86.3561 56.3703L84.5555 55.3321C85.3661 50.9216 85.3661 46.4003 84.5555 41.9898L86.3561 40.9516C87.7407 40.1527 88.9545 39.089 89.9281 37.8211C90.9016 36.5531 91.6159 35.1059 92.0302 33.5619C92.4444 32.0179 92.5505 30.4075 92.3423 28.8225C92.1342 27.2375 91.6159 25.7091 90.817 24.3244C90.0182 22.9397 88.9544 21.726 87.6865 20.7524C86.4186 19.7788 84.9713 19.0645 83.4273 18.6503C81.8833 18.2361 80.2729 18.13 78.6879 18.3381C77.1029 18.5463 75.5745 19.0646 74.1898 19.8634L72.3852 20.9057C68.9767 17.9936 65.0597 15.736 60.8313 14.2467V12.1663C60.8313 8.93956 59.5495 5.84503 57.2679 3.56341C54.9862 1.2818 51.8917 0 48.665 0C45.4383 0 42.3438 1.2818 40.0622 3.56341C37.7806 5.84503 36.4988 8.93956 36.4988 12.1663V14.2467C32.2705 15.7414 28.3549 18.0044 24.9489 20.9219L23.1362 19.8715C20.3397 18.2582 17.0169 17.8218 13.8987 18.6584C10.7805 19.495 8.1223 21.536 6.50896 24.3325C4.89561 27.129 4.45924 30.4518 5.29583 33.57C6.13242 36.6882 8.17345 39.3464 10.9699 40.9597L12.7705 41.9979C11.9599 46.4084 11.9599 50.9297 12.7705 55.3402L10.9699 56.3784C8.17345 57.9917 6.13242 60.6499 5.29583 63.7681C4.45924 66.8863 4.89561 70.2091 6.50896 73.0056C8.1223 75.8021 10.7805 77.8431 13.8987 78.6797C17.0169 79.5163 20.3397 79.0799 23.1362 77.4666L24.9408 76.4243C28.3505 79.3369 32.2689 81.5944 36.4988 83.0833V85.1637C36.4988 88.3904 37.7806 91.485 40.0622 93.7666C42.3438 96.0482 45.4383 97.33 48.665 97.33C51.8917 97.33 54.9862 96.0482 57.2679 93.7666C59.5495 91.485 60.8313 88.3904 60.8313 85.1637V83.0833C65.0595 81.5886 68.9752 79.3256 72.3811 76.4081L74.1939 77.4544C76.9903 79.0677 80.3132 79.5041 83.4314 78.6675C86.5496 77.8309 89.2077 75.7899 90.8211 72.9934C92.4344 70.197 92.8708 66.8742 92.0342 63.7559C91.1976 60.6377 89.1566 57.9796 86.3601 56.3662L86.3561 56.3703ZM76.0229 41.057C77.3962 46.0333 77.3962 51.2886 76.0229 56.2648C75.7831 57.131 75.8378 58.0522 76.1783 58.8839C76.5189 59.7155 77.1261 60.4105 77.9046 60.8596L82.3006 63.3983C83.2326 63.9361 83.9128 64.8221 84.1915 65.8614C84.4703 66.9006 84.3247 68.0081 83.7869 68.9401C83.2492 69.872 82.3632 70.5522 81.3239 70.8309C80.2846 71.1097 79.1772 70.9641 78.2452 70.4264L73.841 67.8796C73.062 67.4283 72.1549 67.2492 71.2628 67.3703C70.3707 67.4915 69.5442 67.9061 68.9137 68.5487C65.304 72.2337 60.7565 74.8629 55.762 76.1526C54.8902 76.3767 54.1178 76.8845 53.5664 77.596C53.015 78.3075 52.7159 79.1822 52.7164 80.0823V85.1637C52.7164 86.2393 52.2891 87.2708 51.5286 88.0314C50.768 88.7919 49.7365 89.2192 48.661 89.2192C47.5854 89.2192 46.5539 88.7919 45.7933 88.0314C45.0328 87.2708 44.6055 86.2393 44.6055 85.1637V80.0864C44.606 79.1862 44.307 78.3115 43.7555 77.6001C43.2041 76.8886 42.4317 76.3808 41.5599 76.1567C36.5651 74.8617 32.0189 72.2268 28.4123 68.5365C27.7817 67.8939 26.9553 67.4793 26.0632 67.3582C25.1711 67.237 24.264 67.4162 23.4849 67.8674L19.0889 70.4101C18.6275 70.6806 18.1171 70.8572 17.5872 70.9296C17.0573 71.0021 16.5183 70.969 16.0013 70.8323C15.4842 70.6956 14.9993 70.458 14.5745 70.1331C14.1496 69.8082 13.7932 69.4025 13.5258 68.9394C13.2584 68.4762 13.0852 67.9647 13.0163 67.4343C12.9473 66.904 12.984 66.3652 13.1241 65.8491C13.2642 65.3329 13.5051 64.8496 13.8328 64.4269C14.1605 64.0042 14.5685 63.6505 15.0334 63.3862L19.4295 60.8475C20.2079 60.3983 20.8152 59.7034 21.1557 58.8717C21.4963 58.04 21.551 57.1188 21.3112 56.2527C19.9379 51.2764 19.9379 46.0211 21.3112 41.0449C21.5467 40.1806 21.4894 39.2627 21.1483 38.4344C20.8071 37.6061 20.2013 36.914 19.4255 36.4663L15.0294 33.9276C14.0974 33.3898 13.4172 32.5039 13.1385 31.4646C12.8598 30.4253 13.0053 29.3179 13.5431 28.3859C14.0809 27.4539 14.9668 26.7737 16.0061 26.495C17.0454 26.2163 18.1528 26.3618 19.0848 26.8996L23.489 29.4464C24.2659 29.8986 25.1711 30.0799 26.0623 29.9617C26.9534 29.8435 27.7801 29.4326 28.4123 28.7935C32.0219 25.1085 36.5694 22.4793 41.564 21.1896C42.4385 20.9647 43.2129 20.4545 43.7646 19.7397C44.3163 19.025 44.6137 18.1465 44.6096 17.2436V12.1663C44.6096 11.0907 45.0369 10.0592 45.7974 9.29864C46.5579 8.5381 47.5895 8.11083 48.665 8.11083C49.7406 8.11083 50.7721 8.5381 51.5326 9.29864C52.2932 10.0592 52.7204 11.0907 52.7204 12.1663V17.2436C52.72 18.1438 53.019 19.0185 53.5704 19.7299C54.1218 20.4414 54.8943 20.9492 55.7661 21.1733C60.7624 22.4676 65.31 25.1026 68.9178 28.7935C69.5483 29.4361 70.3747 29.8507 71.2668 29.9718C72.159 30.093 73.066 29.9138 73.8451 29.4626L78.2412 26.9199C78.7026 26.6494 79.2129 26.4728 79.7428 26.4004C80.2727 26.3279 80.8117 26.361 81.3288 26.4977C81.8458 26.6344 82.3307 26.872 82.7556 27.1969C83.1804 27.5218 83.5368 27.9275 83.8042 28.3906C84.0717 28.8538 84.2448 29.3653 84.3138 29.8957C84.3827 30.426 84.346 30.9648 84.2059 31.481C84.0658 31.9971 83.825 32.4804 83.4973 32.9031C83.1696 33.3258 82.7615 33.6795 82.2966 33.9438L77.9005 36.4825C77.1261 36.9315 76.522 37.624 76.1824 38.4522C75.8428 39.2804 75.7867 40.1977 76.0229 41.0611V41.057Z" fill="white"/>
</g>
<defs>
<clipPath id="clip0_88_88">
<rect width="97.33" height="97.33" fill="white"/>
</clipPath>
</defs>
</svg>
