<svg width="170" height="107" viewBox="0 0 170 107" fill="none" xmlns="http://www.w3.org/2000/svg">
<path d="M169.053 106.905C161.111 104.752 152.772 103.396 145.282 100.266C132.474 94.9473 120.137 88.471 107.546 82.6097C106.184 82.0129 104.65 81.942 103.24 82.4107C90.0522 88.2627 75.3628 89.8379 61.234 86.9152C60.033 86.7072 58.8023 86.7442 57.616 87.0238C46.2732 89.3936 36.3235 86.2459 27.3145 79.4077C25.3064 77.87 26.2833 76.676 28.0562 75.9162C30.4944 74.7991 33.1307 74.1789 35.8112 74.0919C38.4918 74.005 41.1628 74.4529 43.6682 75.4097C48.9652 77.4319 53.9383 80.2171 58.43 83.677C61.035 85.6308 65.1778 85.4861 68.7235 86.065C61.4873 80.9092 58.0863 73.7997 56.6029 64.9534C61.5416 64.5554 64.4361 67.6308 67.0411 70.4891C71.012 74.9009 73.4268 80.4931 73.9154 86.4087C84.1008 86.5947 94.1974 84.4864 103.457 80.2398C99.839 78.0509 96.7094 76.2238 93.6521 74.1615C81.821 66.2017 70.026 58.1514 58.1768 50.2097C57.0926 49.5457 55.8261 49.2418 54.5587 49.3414C52.414 49.594 50.2872 49.9807 48.1908 50.4992C43.434 51.2263 38.8122 52.6592 34.4783 54.7504C31.1215 56.4799 27.4001 57.3823 23.624 57.3823C19.8479 57.3823 16.1265 56.4799 12.7698 54.7504C8.96696 52.9455 5.33424 50.8022 1.9155 48.3464C-0.924704 46.3022 -0.562895 45.0358 2.71147 43.7695C15.3748 38.9032 27.1878 40.3143 37.8793 49.0158C38.4031 49.5388 39.0953 49.8593 39.833 49.9203C44.5366 49.3052 49.2039 48.5454 54.3959 47.7494C47.5577 41.7615 41.0994 36.3886 35.0029 30.6359C30.4079 26.3123 26.229 21.5907 22.014 16.851C20.6572 15.3314 19.7165 14.0469 17.2019 14.2097C16.3777 14.2412 15.5555 14.1089 14.7828 13.8206C14.01 13.5323 13.3021 13.0938 12.6999 12.5302C12.0976 11.9667 11.6131 11.2894 11.2742 10.5375C10.9353 9.78554 10.7488 8.97391 10.7255 8.14947C10.7469 6.71678 11.2989 5.34292 12.2746 4.29366C13.2504 3.24439 14.5806 2.59426 16.0079 2.46904C19.2823 2.03487 23.0632 4.38663 23.3888 7.58864C23.2977 9.6081 22.9263 11.6051 22.2853 13.5223L21.1094 13.7394L36.631 30.0208L37.1195 29.7494C35.9436 25.4982 34.7858 21.2288 33.6099 16.9776C32.7416 13.8298 32.9768 10.4469 29.8833 7.93236C27.7848 6.21377 28.8522 2.28815 31.0954 0.69619C32.2943 0.0317056 33.6966 -0.165925 35.0325 0.141326C36.3683 0.448576 37.5434 1.239 38.3315 2.36051C38.7907 2.90195 39.133 3.53238 39.3372 4.21228C39.5413 4.89218 39.6029 5.60692 39.518 6.31172C39.4331 7.01651 39.2035 7.69618 38.8437 8.30814C38.4839 8.92009 38.0016 9.45116 37.427 9.86805C36.3703 10.4586 35.2695 10.9666 34.1346 11.3876C35.817 17.5565 37.427 23.8158 39.2361 30.0208C40.629 34.869 44.9888 37.257 48.6069 39.9343C58.8642 47.7132 69.3566 55.2208 79.7587 62.8187C80.1337 63.0607 80.534 63.2609 80.9526 63.4157C79.7587 56.7584 78.637 50.3183 77.4431 43.8781C77.3446 43.0824 77.0249 42.3303 76.5205 41.7072C69.4652 34.471 69.5195 25.86 71.5456 16.9414C72.4501 12.9253 74.0421 9.09015 75.3265 5.16453H76.5024C77.2839 5.99611 77.9529 6.92667 78.4923 7.93236C82.5446 18.7866 83.9195 29.8761 79.4873 41.0741C79.2245 41.7973 79.1498 42.5754 79.2702 43.3354C80.3918 50.1555 81.5134 56.9756 82.7798 63.7776C83.0877 64.7124 83.7326 65.4991 84.5888 65.9846C92.6752 71.0499 100.617 76.4047 108.993 80.9635C119.155 86.6264 129.594 91.7765 140.271 96.3946C148.683 100.013 157.692 102.057 166.43 104.789L169.614 105.802L169.053 106.905ZM35.3828 50.4449C35.3828 50.065 35.4733 49.667 35.5275 49.2871C26.012 42.4308 15.628 41.472 4.77378 44.8549C4.77378 45.2168 4.66524 45.5605 4.62906 45.9223L35.3828 50.4449ZM5.4974 47.9665C12.7336 54.7142 27.2059 57.3554 34.4421 52.1997L5.4974 47.9665ZM77.624 38.0348H78.9265C80.6151 29.5418 80.3491 20.7758 78.1486 12.4007H76.828C77.1416 20.9394 77.425 29.4841 77.6783 38.0348H77.624ZM31.023 77.4539L54.5406 83.4961C47.5938 78.1594 40.1406 74.7404 31.023 77.4539ZM20.5486 5.74344C17.2924 4.26002 15.0311 3.93437 13.5296 6.23186C13.2324 6.64804 13.0307 7.12472 12.9391 7.62784C12.8474 8.13096 12.868 8.64813 12.9994 9.14238C13.1307 9.63663 13.3696 10.0958 13.6989 10.487C14.0282 10.8783 14.4398 11.192 14.9044 11.4057C17.1476 12.871 20.4582 12.5274 21.0552 10.465C21.2208 8.87306 21.0482 7.26405 20.5486 5.74344ZM75.3084 10.5012C72.7396 19.5464 70.7134 28.2841 75.8692 37.6369C75.6702 28.2117 75.4893 19.5826 75.3084 10.5012ZM52.623 84.871L30.9145 79.263C37.5356 83.3695 44.3737 86.6619 52.623 84.871ZM35.2743 2.30624C34.9721 2.09637 34.6239 1.96215 34.2591 1.91484C33.8942 1.86754 33.5233 1.90855 33.1776 2.03442C32.8319 2.16029 32.5215 2.36736 32.2725 2.63817C32.0235 2.90899 31.8431 3.23564 31.7466 3.59067C31.6486 5.22398 32.1867 6.83181 33.2481 8.07709C33.7908 8.60171 36.8662 7.84192 37.0652 7.20876C37.4362 6.31592 37.458 5.31625 37.1262 4.4081C36.7944 3.49996 36.1334 2.7497 35.2743 2.30624ZM70.5144 82.2117L71.3828 81.7233C69.23 76.6218 66.8602 71.6831 61.4873 68.8248L70.5144 82.2117ZM60.6732 70.8147C61.0799 73.3261 62.0432 75.7147 63.4924 77.8056C64.9417 79.8966 66.8403 81.6369 69.0491 82.8991L60.6732 70.8147Z" fill="#DBDBDB"/>
</svg>
