<svg width="98" height="98" viewBox="0 0 98 98" fill="none" xmlns="http://www.w3.org/2000/svg">
<g clip-path="url(#clip0_88_82)">
<path d="M75.3537 8.67957L49.9465 0.207803C49.1147 -0.0692676 48.2154 -0.0692676 47.3835 0.207803L21.9763 8.67957C17.9367 10.0214 14.4228 12.6022 11.9337 16.0552C9.44456 19.5082 8.10694 23.6578 8.11085 27.9144V48.666C8.11085 79.3371 45.4207 96.2766 47.0185 96.9822C47.5369 97.2125 48.0978 97.3315 48.665 97.3315C49.2322 97.3315 49.7932 97.2125 50.3115 96.9822C51.9094 96.2766 89.2192 79.3371 89.2192 48.666V27.9144C89.2231 23.6578 87.8855 19.5082 85.3964 16.0552C82.9073 12.6022 79.3933 10.0214 75.3537 8.67957ZM81.1084 48.666C81.1084 70.7883 55.4822 85.2986 48.665 88.77C41.8398 85.3107 16.2217 70.8451 16.2217 48.666V27.9144C16.2219 25.3606 17.0258 22.8717 18.5193 20.8002C20.0129 18.7287 22.1205 17.1797 24.5434 16.3727L48.665 8.3308L72.7866 16.3727C75.2096 17.1797 77.3171 18.7287 78.8107 20.8002C80.3043 22.8717 81.1081 25.3606 81.1084 27.9144V48.666Z" fill="white"/>
<path d="M62.0479 33.6619L45.0638 50.6946L35.9635 41.2049C35.5983 40.8056 35.1568 40.4834 34.6652 40.2574C34.1735 40.0313 33.6416 39.9059 33.1007 39.8886C32.5599 39.8713 32.021 39.9624 31.5159 40.1565C31.0108 40.3507 30.5497 40.644 30.1597 41.0191C29.7696 41.3942 29.4586 41.8436 29.245 42.3408C29.0313 42.8379 28.9194 43.3729 28.9156 43.914C28.9119 44.4551 29.0165 44.9915 29.2233 45.4916C29.4301 45.9916 29.7348 46.4453 30.1196 46.8257L39.4714 56.5587C40.1688 57.3121 41.0118 57.9161 41.9493 58.3343C42.8869 58.7525 43.8995 58.9763 44.9259 58.992H45.0598C46.0657 58.9953 47.0624 58.7988 47.9917 58.4138C48.9211 58.0288 49.7648 57.463 50.4738 56.7494L67.7985 39.4246C68.1769 39.047 68.4772 38.5986 68.6823 38.105C68.8874 37.6113 68.9932 37.0821 68.9938 36.5475C68.9943 36.013 68.8896 35.4835 68.6856 34.9895C68.4815 34.4954 68.1822 34.0463 67.8046 33.6679C67.427 33.2896 66.9786 32.9892 66.4849 32.7842C65.9913 32.5791 65.4621 32.4732 64.9275 32.4727C64.393 32.4721 63.8635 32.5768 63.3694 32.7809C62.8754 32.9849 62.4263 33.2843 62.0479 33.6619Z" fill="white"/>
</g>
<defs>
<clipPath id="clip0_88_82">
<rect width="97.33" height="97.33" fill="white"/>
</clipPath>
</defs>
</svg>
