<svg width="42" height="42" viewBox="0 0 42 42" fill="none" xmlns="http://www.w3.org/2000/svg">
<g clip-path="url(#clip0_88_12)">
<path d="M5.2549 31.9102L4.86166 33.4839C4.71513 34.0701 4.84428 34.6785 5.21599 35.1546C5.5877 35.6306 6.14734 35.9038 6.75085 35.9038C7.64577 35.9038 8.42313 35.2969 8.64003 34.4285L9.26507 31.93H5.76735C5.59515 31.93 5.42378 31.9234 5.2549 31.9102Z" fill="#6AB9BC"/>
<path d="M36.7453 31.9102C36.5764 31.9234 36.4051 31.93 36.2329 31.93H32.736L33.3602 34.4285C33.5771 35.2969 34.3544 35.9038 35.2494 35.9038C35.8529 35.9038 36.4125 35.6306 36.7842 35.1546C37.1559 34.6785 37.2851 34.0701 37.1385 33.4839L36.7453 31.9102Z" fill="#6AB9BC"/>
<path d="M3.86313 13.3994C5.97004 13.5741 7.74581 15.1338 8.16637 17.2349L9.18547 22.3312C9.29971 22.9025 9.80554 23.3172 10.3884 23.3172H31.6115C32.1943 23.3172 32.7001 22.9025 32.8143 22.3312L33.8334 17.2349C34.2242 15.282 35.7864 13.7968 37.6963 13.4565L37.8627 12.526C38.1474 10.9291 37.7136 9.29983 36.6722 8.05555C35.6307 6.81127 34.1025 6.09766 32.4799 6.09766H9.06211C7.40308 6.09766 5.85331 6.83777 4.81021 8.12758C3.7671 9.41822 3.36807 11.0888 3.71577 12.7106L3.86313 13.3994Z" fill="#6AB9BC"/>
<path d="M41.0647 15.8061C40.4115 15.108 39.4886 14.7076 38.5325 14.7076C38.1536 14.7076 37.7864 14.7703 37.4413 14.8855L37.4414 14.8847C36.279 15.2654 35.3642 16.2926 35.1323 17.4951L34.1131 22.591C33.8754 23.7793 32.8233 24.6419 31.6114 24.6419H10.3888C9.17684 24.6419 8.12471 23.7794 7.88703 22.591L6.86785 17.4951C6.6122 16.1529 5.49889 15.0397 4.15883 14.7779L4.15891 14.7783C2.9985 14.5321 1.74172 14.9359 0.935377 15.8061C0.282192 16.5044 -0.0559901 17.4519 0.00758981 18.4058L0.469041 25.327C0.481211 28.1759 2.75386 30.5001 5.58226 30.5978L5.58193 30.5992C5.64319 30.6017 5.70528 30.6026 5.76737 30.6026H9.59624H32.4047H36.2327C36.2948 30.6026 36.3569 30.6017 36.4182 30.5992L36.4179 30.5978C39.2463 30.5001 41.5189 28.1759 41.531 25.327L41.9924 18.4058C42.056 17.4519 41.7179 16.5043 41.0647 15.8061Z" fill="#6AB9BC"/>
</g>
<defs>
<clipPath id="clip0_88_12">
<rect width="42" height="42" fill="white"/>
</clipPath>
</defs>
</svg>
