<svg width="98" height="98" viewBox="0 0 98 98" fill="none" xmlns="http://www.w3.org/2000/svg">
<g clip-path="url(#clip0_88_94)">
<path d="M93.3435 35.6261C90.9305 33.4281 87.8201 32.321 84.5514 32.4548C81.2908 32.6089 78.2898 34.0242 76.0918 36.4332L63.0496 50.765C60.815 47.0786 56.7637 44.6048 52.1445 44.6048H16.2217C7.27542 44.6048 0 51.8802 0 60.8265V81.1036C0 90.0498 7.27542 97.3252 16.2217 97.3252H36.3568C47.9107 97.3252 58.9455 92.3776 66.6346 83.7477L94.2317 52.7724C98.6642 47.7964 98.2627 40.1074 93.3435 35.6261ZM88.1769 47.3828L60.5798 78.3581C54.4277 85.2563 45.5991 89.2185 36.3568 89.2185H16.2217C11.7485 89.2185 8.11083 85.5808 8.11083 81.1076V60.8305C8.11083 56.3574 11.7485 52.7197 16.2217 52.7197H52.1445C54.6995 52.7197 56.7758 54.8001 56.7758 57.355C56.7758 59.6423 55.0685 61.6173 52.7975 61.9377L31.8675 64.9265C29.6532 65.2428 28.1121 67.2989 28.4285 69.5173C28.7488 71.7356 30.8009 73.2726 33.0151 72.9603L53.9411 69.9715C58.7062 69.2901 62.5791 65.9647 64.1405 61.6213L82.0897 41.8958C82.8278 41.0888 83.8336 40.6143 84.9285 40.5616C86.0316 40.517 87.0698 40.8901 87.8809 41.6281C89.5314 43.1327 89.6653 45.7201 88.1769 47.3909V47.3828ZM34.471 32.4264C38.2629 32.4264 41.8276 30.9502 44.5082 28.2696C50.0438 22.734 50.0398 13.7269 44.4758 8.16284L37.3058 1.15102C35.7282 -0.394091 33.2098 -0.394091 31.6363 1.15102L24.4379 8.19123C18.9023 13.7228 18.9023 22.734 24.4379 28.2655C27.1186 30.9462 30.6833 32.4223 34.4751 32.4223L34.471 32.4264ZM30.1399 13.958L34.471 9.72012L38.7738 13.9256C41.1463 16.298 41.1463 20.1588 38.7738 22.5312C36.4825 24.8265 32.4717 24.8265 30.1723 22.5312C27.7999 20.1588 27.7999 16.298 30.1399 13.958Z" fill="#296D70"/>
</g>
<defs>
<clipPath id="clip0_88_94">
<rect width="97.33" height="97.33" fill="white"/>
</clipPath>
</defs>
</svg>
