<svg width="98" height="98" viewBox="0 0 98 98" fill="none" xmlns="http://www.w3.org/2000/svg">
<g clip-path="url(#clip0_88_71)">
<path d="M48.8291 33.9546C50.1688 33.9546 51.2537 32.8689 51.2537 31.53C51.2537 30.1911 50.1688 29.1055 48.8291 29.1055C38.1172 29.1055 29.4333 37.7894 29.4333 48.502C29.4333 59.2139 38.1172 67.8978 48.8291 67.8978C59.5418 67.8978 68.2257 59.2139 68.2257 48.502C68.2257 47.1624 67.14 46.0774 65.8011 46.0774C64.4622 46.0774 63.3765 47.1624 63.3765 48.502C63.3765 56.5361 56.864 63.0494 48.8291 63.0494C40.795 63.0494 34.2817 56.5361 34.2817 48.502C34.2817 40.4671 40.795 33.9546 48.8291 33.9546Z" fill="white"/>
<path d="M95.09 34.1036C94.669 32.8316 93.2967 32.1417 92.0239 32.5628C90.7808 32.9741 90.0887 34.2975 90.4592 35.5532C97.7099 58.6426 84.8705 83.2381 61.781 90.4887C38.6923 97.7394 14.0969 84.9 6.84619 61.8105C-0.405236 38.7211 12.4349 14.1256 35.5237 6.87497C44.0709 4.19124 53.2345 4.19124 61.781 6.87497C63.0642 7.26186 64.418 6.5356 64.8048 5.2524C65.1858 3.98851 64.487 2.65258 63.2313 2.24416C37.5933 -5.79961 10.2881 8.46338 2.24434 34.1021C-5.79943 59.7402 8.4643 87.0453 34.1023 95.0891C59.7411 103.133 87.0455 88.8699 95.0893 63.2311C98.0641 53.7497 98.0641 43.5851 95.09 34.1036Z" fill="white"/>
<path d="M53.4466 17.3196C53.4593 15.9391 52.3988 14.7851 51.0221 14.6819C50.298 14.6202 49.5733 14.5586 48.8299 14.5586C30.0832 14.5586 14.886 29.7558 14.886 48.5025C14.886 67.2486 30.0832 82.4457 48.8299 82.4457C67.5759 82.4457 82.7731 67.2486 82.7731 48.5025C82.7731 47.6255 82.7197 46.7493 82.612 45.879C82.4182 44.5482 81.1825 43.6267 79.8518 43.8205C78.521 44.0136 77.5995 45.25 77.7925 46.5807C77.8 46.6312 77.8089 46.681 77.8193 46.7314C77.872 47.3188 77.924 47.901 77.924 48.501C77.9247 64.57 64.8989 77.5959 48.8307 77.5973C32.7617 77.5981 19.7359 64.5715 19.7351 48.5033C19.7344 32.435 32.7595 19.4085 48.8284 19.4077H48.8292C49.4307 19.4077 50.0136 19.4597 50.5995 19.5117L51.054 19.5496C52.3209 19.6038 53.3917 18.6206 53.4451 17.3537C53.4459 17.3418 53.4459 17.3307 53.4466 17.3196Z" fill="white"/>
<path d="M63.3767 21.8345V30.5288L47.1154 46.7901C46.1523 47.7206 46.1255 49.2555 47.056 50.2186C47.9865 51.1818 49.5214 51.2085 50.4846 50.2781C50.5046 50.2587 50.5247 50.2387 50.544 50.2186L66.8053 33.9573H75.4996C76.1426 33.9573 76.759 33.7019 77.2142 33.2467L91.7609 18.6993C92.7077 17.7525 92.7077 16.2175 91.7609 15.2707C91.3064 14.8163 90.6901 14.5608 90.047 14.5608H82.7733V7.28711C82.7733 5.94821 81.6876 4.86254 80.348 4.86328C79.7056 4.86328 79.0893 5.11873 78.6348 5.5732L64.0874 20.1206C63.6322 20.5751 63.3767 21.1914 63.3767 21.8345ZM68.2259 22.8385L77.9241 13.1402V16.9854C77.9241 18.3243 79.0098 19.4099 80.3487 19.4099H84.1938L74.4956 29.1082H68.2259V22.8385Z" fill="white"/>
</g>
<defs>
<clipPath id="clip0_88_71">
<rect width="97.3333" height="97.3333" fill="white"/>
</clipPath>
</defs>
</svg>
