<svg width="260" height="190" viewBox="0 0 260 190" fill="none" xmlns="http://www.w3.org/2000/svg">
<path fill-rule="evenodd" clip-rule="evenodd" d="M129.054 110.962L156.507 108.966C156.886 108.936 157.254 108.831 157.592 108.657C162.522 106.062 167.404 103.356 172.365 100.823C179.133 97.2606 186.559 95.1215 194.184 94.5372C194.941 94.4994 195.753 95.4545 196.545 95.9209C195.985 96.438 195.351 96.8686 194.664 97.1982C189.472 98.6609 185.559 102.163 181.391 105.257C182.007 105.356 182.634 105.362 183.252 105.273C191.917 104.412 200.505 103.63 209.124 102.817C210.092 102.681 211.079 102.764 212.012 103.061C212.362 103.218 212.676 103.445 212.936 103.727C213.196 104.01 213.396 104.342 213.523 104.704C213.653 105.176 213.014 106.08 212.497 106.416C210.778 107.513 208.984 108.487 207.128 109.33C194.686 114.658 181.256 117.291 167.723 117.056C166.477 117.049 165.254 117.398 164.2 118.063C158.283 121.699 151.86 124.437 145.14 126.187C136.109 128.628 126.875 127.491 117.734 128.166C116.907 128.176 116.085 128.044 115.303 127.777C110.098 126.351 104.747 125.528 99.3553 125.324C93.0932 125.109 87.3375 126.986 81.3571 128.392C92.4939 130.743 102.361 135.88 112.276 141.064C119.657 144.944 127.225 148.602 135.822 148.925C138.282 149.168 140.711 149.66 143.072 150.393C143.736 150.577 144.247 151.361 144.803 151.814C144.172 152.364 143.435 152.778 142.637 153.031C141.213 153.123 139.784 153.05 138.377 152.814C129.173 151.488 119.922 150.304 110.795 148.709C102.787 147.145 95.0637 144.371 87.8921 140.48C81.6367 137.3 75.614 133.66 69.1885 130.876C62.3517 127.937 55.1899 125.742 48.1209 123.325C45.1953 122.325 42.1771 121.577 39.1267 120.736C39.1126 120.941 39.0663 121.052 39.0981 121.083C39.8716 121.508 40.6181 121.981 41.3333 122.499C52.3033 131.285 63.8984 139.404 73.9772 149.096C86.1718 160.749 100.146 170.384 115.373 177.638C120.931 180.288 126.255 183.46 131.705 186.473C132.846 187.095 133.877 187.859 134.955 188.544L134.632 189.508C133.716 189.452 132.807 189.312 131.916 189.089C124.579 186.596 117.272 184.071 109.934 181.452C103.014 179.089 96.2224 176.367 89.5863 173.297C81.2294 168.913 73.9126 162.785 68.1318 155.326C60.2778 145.789 52.5494 136.187 42.9264 128.194C34.3041 121.06 25.1697 114.924 14.0602 112.068C9.68016 110.675 5.40313 108.978 1.26057 106.987C0.79129 106.665 0.382261 106.263 0.0521534 105.799C0.572725 105.616 1.12273 105.531 1.67426 105.549C4.11274 105.958 6.528 106.496 8.90997 107.159C18.0473 109.89 27.0906 112.684 36.0732 115.763C42.6616 118.133 49.6324 119.262 56.6322 119.091C58.8165 119.063 60.9713 118.583 62.9611 117.681C64.9509 116.78 66.7327 115.477 68.1943 113.853C72.7737 108.974 77.5757 104.313 81.6623 98.9492C90.4995 87.3582 102.42 78.4877 116.061 73.3518C117.01 73.0794 117.988 72.9178 118.974 72.8701L119.264 73.6246C118.764 74.1334 118.263 74.6422 117.7 75.2146C115.324 77.6314 112.787 79.7657 110.427 82.2927C103.363 89.858 96.5373 97.6577 89.3621 105.145C82.9825 112.063 74.844 117.118 65.8155 119.771C62.7321 120.648 59.534 121.006 56.3065 121.617C56.4723 121.775 56.6658 121.902 56.8773 121.99C63.9476 122.688 70.8963 123.923 77.9155 124.164C83.5395 124.545 89.1745 123.6 94.3659 121.403C99.5572 119.207 104.16 115.821 107.802 111.519C112.986 105.388 117.601 98.7996 121.593 91.834C129.655 78.455 141.547 67.803 155.729 61.2558C159.217 59.1586 163.269 58.1936 167.327 58.4937C172.141 49.5596 184.135 35.677 189.566 32.6985C187.567 35.0491 185.505 37.3055 183.617 39.7025C181.729 42.0994 179.889 44.5748 178.16 47.0965C176.43 49.6183 175.001 52.1218 173.445 54.6263C173.66 54.616 173.871 54.5624 174.066 54.4686C174.26 54.3749 174.433 54.2429 174.576 54.0807C181.817 45.4127 189.75 37.3462 198.295 29.9604C200.862 27.7312 203.08 25.095 205.487 22.6464L205.042 22.2086C204.146 22.5157 203.25 22.8229 202.369 23.1456C202.981 22.3661 203.778 21.7522 204.688 21.36C205.54 21.0927 206.415 20.9059 207.301 20.802C207.277 21.661 207.152 22.5142 206.928 23.3439C204.781 28.7076 200.428 32.3079 196.471 36.2044C180.487 51.9181 166.042 68.8331 155.197 88.1936C155.481 87.9408 155.747 87.67 155.995 87.3827C162.429 79.9489 168.864 72.5046 175.298 65.0498C183.035 55.6977 192.024 47.4561 202.011 40.5575C204.057 39.3098 206.246 38.3121 208.53 37.5857C208.911 37.5317 209.299 37.5723 209.66 37.7041C210.022 37.8358 210.345 38.0546 210.602 38.341C210.904 38.6381 210.519 39.7609 210.13 40.3161C209.529 41.0863 208.841 41.7851 208.081 42.399C200.72 48.8197 194.11 56.0537 188.377 63.9625C183.655 70.6093 178.362 76.8509 173.306 83.2324C172.51 84.2325 171.508 85.0609 170.179 86.4124C171.138 86.1363 171.422 86.0708 171.705 85.9739C171.988 85.8769 172.695 85.5713 173.15 85.3309C188.727 77.6308 203.155 67.7974 216.018 56.1146C219.912 52.3578 223.157 47.9827 225.623 43.1666C228.444 38.0373 230.913 32.7217 233.011 27.2569C237.102 16.7362 244.16 8.4772 252.345 1.01297C252.808 0.672972 253.295 0.368454 253.804 0.101956L254.468 0.34866C254.475 1.35707 254.34 2.36139 254.067 3.33235C250.988 10.3753 248.005 17.4806 244.577 24.3689C242.331 29.0196 239.705 33.4772 236.726 37.6963C227.996 49.7539 217.073 59.7799 206.182 69.8371C203.35 72.4627 200.057 74.6033 196.657 77.2022C197.547 77.0717 198.429 76.8959 199.301 76.6754C215.109 71.2026 230.958 65.7609 246.85 60.3503C249.569 59.4001 252.364 58.6855 255.205 58.2146C255.845 58.1762 256.486 58.2763 257.084 58.508C257.682 58.7398 258.223 59.0978 258.67 59.5575C259.926 60.7927 258.359 61.9727 257.563 62.9728C257.347 63.2881 257.078 63.5627 256.766 63.7837C251.777 66.8216 246.965 70.2838 241.671 72.7724C229.767 78.5174 216.917 80.5805 203.904 82.0456C195.381 83.0474 186.882 83.0713 178.825 87.0022C166.78 92.8903 154.269 97.852 142.047 103.379C137.397 105.499 132.988 108.107 128.168 110.654C128.454 110.783 128.75 110.886 129.054 110.962ZM120.639 111.632C125.553 109.052 130.579 106.613 135.317 103.703C138.211 101.842 140.862 99.6264 143.209 97.109C146.537 93.7598 149.572 90.131 152.28 86.2627C155.752 81.0141 158.638 75.4077 161.73 69.91C162.755 68.0889 163.595 66.1695 164.237 64.1806C163.485 64.7861 162.717 65.376 161.95 65.9659C147.805 77.4297 134.664 90.0796 122.671 103.778C117.968 109.005 112.502 113.514 107.183 118.541C111.674 116.233 116.18 113.972 120.639 111.632ZM140.608 114.13C136.19 113.788 131.726 113.621 127.355 113.295C124.508 113.164 121.687 113.885 119.251 115.365C114.274 118.009 109.121 120.291 103.938 122.763C107.869 123.313 111.91 123.753 115.874 124.461C120.512 125.212 125.268 124.597 129.562 122.69C134.795 120.549 139.9 118.125 145.053 115.811C145.367 115.651 145.649 115.428 146.292 114.997C144.129 114.652 142.375 114.273 140.608 114.13ZM196.376 47.5273C185.866 55.9572 177.439 66.4353 168.632 76.7905C163.838 82.4602 158.584 87.7395 153.521 93.2065C152.911 93.8266 152.285 94.4626 151.676 95.0827L152.123 95.7412C156.326 92.9622 160.703 90.3867 164.683 87.3257C172.157 81.602 177.739 74.0492 183.243 66.5444C189.47 57.5909 196.822 49.4738 205.117 42.3923C205.372 42.1644 205.612 41.92 205.836 41.6609L205.375 41.2074C202.317 43.2988 199.18 45.2804 196.376 47.5273ZM151.541 112.903C171.321 115.433 190.844 115.617 209.181 105.907C189.745 106.685 170.615 110.204 151.447 112.998L151.541 112.903ZM82.4392 165.33C92.5466 172.799 104.313 176.832 115.985 181.023C110.267 177.996 104.456 175.096 98.8152 171.895C89.7549 166.68 81.4465 160.256 74.1186 152.8C69.8574 148.61 65.2835 144.738 60.8344 140.707C60.6624 140.881 60.4904 141.056 60.3184 141.231C67.1231 149.737 73.4279 158.814 82.3454 165.425L82.4392 165.33ZM255.119 61.0379L205.203 79.0071C217.673 80.5426 247.782 69.9301 255.025 61.1334L255.119 61.0379ZM80.1321 110.174C87.1064 105.054 92.4589 98.3384 98.1132 91.8888C101.519 88.1073 105.004 84.3724 108.442 80.6221C108.739 80.32 109.036 80.0179 109.318 79.7317L108.857 79.2782C105.59 81.0821 102.488 83.1714 99.5895 85.5216C93.7078 91.1846 88.2554 97.2698 82.6286 103.246C79.267 106.665 76.0643 110.239 72.7824 113.768C72.5478 114.006 72.3928 114.323 72.1744 114.608L72.6037 115.031C75.0982 113.512 77.578 112.103 80.0383 110.269L80.1321 110.174ZM159.344 63.6854C140.817 71.3625 127.922 84.9846 118.702 102.502C130.815 88.2017 144.407 75.2223 159.251 63.7808L159.344 63.6854ZM241.642 14.664C236.972 23.8649 233 33.4069 229.043 42.9329C239.547 31.9328 245.156 18.1195 250.655 4.44902L250.019 3.8236C247.023 7.57018 243.565 10.8002 241.548 14.7594L241.642 14.664ZM74.9266 130.67C87.5066 137.755 99.8165 144.606 114.181 146.378C101.858 139.858 89.3596 133.072 74.9266 130.67ZM153.191 115.932C152.594 115.93 152.007 116.087 151.491 116.388C145.793 119.416 140.094 122.476 134.553 125.471C143.877 124.986 152.93 122.166 160.881 117.271L160.75 116.705C158.272 116.394 155.715 116.132 153.191 115.932ZM168.363 106.864C175.155 108.163 178.759 103.608 183.087 100.638L182.829 100.041C178.085 102.194 173.405 104.409 168.316 106.817L168.363 106.864Z" fill="#DBDBDB"/>
</svg>
